<svg width="42" height="42" viewBox="0 0 42 42" fill="none" xmlns="http://www.w3.org/2000/svg">
<path fill-rule="evenodd" clip-rule="evenodd" d="M21 0.166656C9.49999 0.166656 0.166656 9.49999 0.166656 21C0.166656 32.5 9.49999 41.8333 21 41.8333C32.5 41.8333 41.8333 32.5 41.8333 21C41.8333 9.49999 32.5 0.166656 21 0.166656ZM10.7292 34.0833C11.625 32.2083 17.0833 30.375 21 30.375C24.9167 30.375 30.3958 32.2083 31.2708 34.0833C28.4375 36.3333 24.875 37.6667 21 37.6667C17.125 37.6667 13.5625 36.3333 10.7292 34.0833ZM21 26.2083C24.0417 26.2083 31.2708 27.4375 34.25 31.0625C36.375 28.2708 37.6667 24.7917 37.6667 21C37.6667 11.8125 30.1875 4.33332 21 4.33332C11.8125 4.33332 4.33332 11.8125 4.33332 21C4.33332 24.7917 5.62499 28.2708 7.74999 31.0625C10.7292 27.4375 17.9583 26.2083 21 26.2083ZM21 8.49999C16.9583 8.49999 13.7083 11.75 13.7083 15.7917C13.7083 19.8333 16.9583 23.0833 21 23.0833C25.0417 23.0833 28.2917 19.8333 28.2917 15.7917C28.2917 11.75 25.0417 8.49999 21 8.49999ZM17.875 15.7917C17.875 17.5208 19.2708 18.9167 21 18.9167C22.7292 18.9167 24.125 17.5208 24.125 15.7917C24.125 14.0625 22.7292 12.6667 21 12.6667C19.2708 12.6667 17.875 14.0625 17.875 15.7917Z" fill="#F2F2F2"/>
</svg>
