<svg width="30" height="42" viewBox="0 0 30 42" fill="none" xmlns="http://www.w3.org/2000/svg">
<path fill-rule="evenodd" clip-rule="evenodd" d="M15 0.166656C6.93749 0.166656 0.416656 6.68749 0.416656 14.75C0.416656 25.6875 15 41.8333 15 41.8333C15 41.8333 29.5833 25.6875 29.5833 14.75C29.5833 6.68749 23.0625 0.166656 15 0.166656ZM4.58332 14.75C4.58332 8.99999 9.24999 4.33332 15 4.33332C20.75 4.33332 25.4167 8.99999 25.4167 14.75C25.4167 20.75 19.4167 29.7292 15 35.3333C10.6667 29.7708 4.58332 20.6875 4.58332 14.75ZM9.79166 14.75C9.79166 11.8735 12.1235 9.54166 15 9.54166C16.8608 9.54166 18.5802 10.5344 19.5105 12.1458C20.4409 13.7573 20.4409 15.7427 19.5105 17.3542C18.5802 18.9656 16.8608 19.9583 15 19.9583C12.1235 19.9583 9.79166 17.6265 9.79166 14.75Z" fill="#F2F2F2"/>
</svg>
